<svg id="Capa_1" data-name="Capa 1" xmlns="http://www.w3.org/2000/svg" viewBox="0 0 30 45"><defs><style>.cls-1{fill:#1e1e1e;}</style></defs><path class="cls-1" d="M39,11.06a8.92,8.92,0,0,0-2-4.15A15.75,15.75,0,0,0,26.35,1.58a15.34,15.34,0,0,0-6.77.78C16.24,3.55,14.14,5.79,14.26,8a3.4,3.4,0,0,0,.67,1.9c.43.65,1.15,1.37,1.36,1.37a.48.48,0,0,0,.19-.08c.09-.07.12-.14.15-.4.17-1.53,1.8-3.33,4.12-4.55a14.86,14.86,0,0,1,5.32-1.51,25.27,25.27,0,0,1,3.37,0,9.55,9.55,0,0,1,4.74,1.62,4.94,4.94,0,0,1,2.12,4.25c0,2.54-1.6,4.57-5.16,6.5-.86.46-3.5,1.71-3.63,1.71a1.36,1.36,0,0,1-.25-.22,5.2,5.2,0,0,0-1.17-.83,10,10,0,0,0-6.2-.25,12.53,12.53,0,0,0-3.33,1.38A25.66,25.66,0,0,0,14,20.77a17,17,0,0,0-3.53,4.65,13.86,13.86,0,0,0-1.34,8.14,12.15,12.15,0,0,0,3.61,6.79,14.89,14.89,0,0,0,1.71,1.24c.17.09.62.31,1,.48a10,10,0,0,1,2,1.15,18.13,18.13,0,0,0,6.43,3.06,9,9,0,0,0,2.32.22A6.63,6.63,0,0,0,29,45.9a3.21,3.21,0,0,0,1.79-1.74,2.3,2.3,0,0,0,0-1.22,3.28,3.28,0,0,0-2.89-1.83.48.48,0,0,0-.39.13.87.87,0,0,0-.27.35,2.7,2.7,0,0,1-.84,1A4.8,4.8,0,0,1,24,43.5a9.18,9.18,0,0,1-2.51-.06,3.91,3.91,0,0,1-2.65-1.51,3.12,3.12,0,0,1-.2-3.22,9.29,9.29,0,0,1,3-3.18,22.77,22.77,0,0,1,3.94-2.32c2.71-1.31,3.43-1.67,4.06-2a9.74,9.74,0,0,0,3.49-2.75,2.56,2.56,0,0,0,.55-1.65,3.1,3.1,0,0,0-.08-.82,4.15,4.15,0,0,0-2-2.5l-.31-.19-.71.27A49.87,49.87,0,0,0,22,28.06c-.94.61-3.27,2.29-3.86,2.78a11.56,11.56,0,0,0-3.62,4.71l-.21.54h-.37l0-.45a8,8,0,0,1,.43-2.85,15.29,15.29,0,0,1,6-6.89A53.14,53.14,0,0,1,29,21.33c.9-.41,2-.93,2.46-1.15C36.74,17.63,39,15.1,39,11.91,39,11.62,39,11.24,39,11.06Z" transform="translate(-9 -1.5)"/></svg>